<svg xmlns="http://www.w3.org/2000/svg" viewBox="0 0 160 160"><path d="M81 34 Q123 29 131 77 Q150 127 84 142 Q20 139 27 80 Q28 32 81 34 Z" fill="#879fbd" stroke="none" stroke-width="0" stroke-linecap="round" stroke-linejoin="round"/><path d="M64 37 L68 24 L80 30 L92 23 L95 36 L109 42 L94 47 L80 43 L66 47 L52 42 Z" fill="#5f7998" stroke="none" stroke-width="0" stroke-linecap="round" stroke-linejoin="round"/><ellipse cx="59" cy="87" rx="4" ry="6" fill="#344538"/><ellipse cx="101" cy="87" rx="4" ry="6" fill="#344538"/><ellipse cx="47" cy="100" rx="8" ry="4" fill="#ef9a99"/><ellipse cx="113" cy="100" rx="8" ry="4" fill="#ef9a99"/><path d="M72 104 Q80 113 88 104" fill="none" stroke="#344538" stroke-width="3" stroke-linecap="round" stroke-linejoin="round"/></svg>