<svg xmlns="http://www.w3.org/2000/svg" viewBox="0 0 160 160"><path d="M80 42 Q76 22 91 16" fill="none" stroke="#77934b" stroke-width="5" stroke-linecap="round" stroke-linejoin="round"/><path d="M84 32 Q97 13 116 24 Q104 43 84 32 Z" fill="#94b86b" stroke="none" stroke-width="0" stroke-linecap="round" stroke-linejoin="round"/><path d="M56 45 Q101 20 124 55 Q155 107 99 137 Q40 154 30 106 Q26 64 56 45 Z" fill="#efbc77" stroke="none" stroke-width="0" stroke-linecap="round" stroke-linejoin="round"/><path d="M113 62 Q138 103 106 124" fill="none" stroke="#e6a669" stroke-width="6" stroke-linecap="round" stroke-linejoin="round"/><ellipse cx="59" cy="87" rx="4" ry="6" fill="#344538"/><ellipse cx="101" cy="87" rx="4" ry="6" fill="#344538"/><ellipse cx="47" cy="100" rx="8" ry="4" fill="#ef9a99"/><ellipse cx="113" cy="100" rx="8" ry="4" fill="#ef9a99"/><path d="M72 104 Q80 113 88 104" fill="none" stroke="#344538" stroke-width="3" stroke-linecap="round" stroke-linejoin="round"/></svg>