<svg xmlns="http://www.w3.org/2000/svg" viewBox="0 0 160 160"><path d="M80 42 Q76 22 91 16" fill="none" stroke="#77934b" stroke-width="5" stroke-linecap="round" stroke-linejoin="round"/><path d="M84 32 Q97 13 116 24 Q104 43 84 32 Z" fill="#94b86b" stroke="none" stroke-width="0" stroke-linecap="round" stroke-linejoin="round"/><path d="M62 44 Q80 23 97 46 Q95 66 119 92 Q142 137 80 140 Q18 138 41 94 Q65 62 62 44 Z" fill="#b3ce87" stroke="none" stroke-width="0" stroke-linecap="round" stroke-linejoin="round"/><ellipse cx="59" cy="85" rx="4" ry="6" fill="#344538"/><ellipse cx="101" cy="85" rx="4" ry="6" fill="#344538"/><ellipse cx="47" cy="98" rx="8" ry="4" fill="#ef9a99"/><ellipse cx="113" cy="98" rx="8" ry="4" fill="#ef9a99"/><path d="M72 102 Q80 111 88 102" fill="none" stroke="#344538" stroke-width="3" stroke-linecap="round" stroke-linejoin="round"/></svg>